<mxfile host="Electron" agent="Mozilla/5.0 (Windows NT 10.0; Win64; x64) AppleWebKit/537.36 (KHTML, like Gecko) draw.io/24.7.17 Chrome/128.0.6613.36 Electron/32.0.1 Safari/537.36" version="24.7.17">
  <diagram name="Página-1" id="caZJo9AsfcRcT_C5_-hI">
    <mxGraphModel dx="1434" dy="844" grid="1" gridSize="10" guides="1" tooltips="1" connect="1" arrows="1" fold="1" page="1" pageScale="1" pageWidth="827" pageHeight="1169" math="0" shadow="0">
      <root>
        <mxCell id="0" />
        <mxCell id="1" parent="0" />
        <mxCell id="_3lTq945jsmqDbsukCAh-3" value="Usuário" style="shape=umlActor;verticalLabelPosition=bottom;verticalAlign=top;html=1;outlineConnect=0;" vertex="1" parent="1">
          <mxGeometry x="230" y="380" width="30" height="60" as="geometry" />
        </mxCell>
        <mxCell id="_3lTq945jsmqDbsukCAh-4" value="" style="rounded=0;whiteSpace=wrap;html=1;" vertex="1" parent="1">
          <mxGeometry x="390" y="160" width="450" height="540" as="geometry" />
        </mxCell>
        <mxCell id="_3lTq945jsmqDbsukCAh-5" value="Visualizar Vendas" style="ellipse;whiteSpace=wrap;html=1;" vertex="1" parent="1">
          <mxGeometry x="545" y="450" width="140" height="70" as="geometry" />
        </mxCell>
        <mxCell id="_3lTq945jsmqDbsukCAh-9" value="" style="endArrow=none;html=1;rounded=0;entryX=0;entryY=0.5;entryDx=0;entryDy=0;" edge="1" parent="1" target="_3lTq945jsmqDbsukCAh-5">
          <mxGeometry width="50" height="50" relative="1" as="geometry">
            <mxPoint x="260" y="410" as="sourcePoint" />
            <mxPoint x="310" y="360" as="targetPoint" />
          </mxGeometry>
        </mxCell>
        <mxCell id="_3lTq945jsmqDbsukCAh-16" value="Caso de uso de Estatísticas de Vendas&lt;div&gt;(últimos 30 dias)&lt;/div&gt;" style="text;html=1;align=center;verticalAlign=middle;whiteSpace=wrap;rounded=0;" vertex="1" parent="1">
          <mxGeometry x="502" y="170" width="226" height="30" as="geometry" />
        </mxCell>
        <mxCell id="_3lTq945jsmqDbsukCAh-18" value="Visualizar Faturamento total&amp;nbsp;" style="ellipse;whiteSpace=wrap;html=1;" vertex="1" parent="1">
          <mxGeometry x="545" y="210" width="140" height="70" as="geometry" />
        </mxCell>
        <mxCell id="_3lTq945jsmqDbsukCAh-19" value="" style="endArrow=none;html=1;rounded=0;entryX=0;entryY=0.5;entryDx=0;entryDy=0;" edge="1" parent="1" target="_3lTq945jsmqDbsukCAh-18">
          <mxGeometry width="50" height="50" relative="1" as="geometry">
            <mxPoint x="260" y="410" as="sourcePoint" />
            <mxPoint x="555" y="525" as="targetPoint" />
          </mxGeometry>
        </mxCell>
        <mxCell id="_3lTq945jsmqDbsukCAh-20" value="Visualizar Faturamento por produto&amp;nbsp;" style="ellipse;whiteSpace=wrap;html=1;" vertex="1" parent="1">
          <mxGeometry x="545" y="330" width="140" height="70" as="geometry" />
        </mxCell>
        <mxCell id="_3lTq945jsmqDbsukCAh-21" value="Visualizar Itens mais vendidos" style="ellipse;whiteSpace=wrap;html=1;" vertex="1" parent="1">
          <mxGeometry x="545" y="580" width="140" height="70" as="geometry" />
        </mxCell>
        <mxCell id="_3lTq945jsmqDbsukCAh-22" value="" style="endArrow=none;html=1;rounded=0;entryX=0;entryY=0.5;entryDx=0;entryDy=0;" edge="1" parent="1" target="_3lTq945jsmqDbsukCAh-20">
          <mxGeometry width="50" height="50" relative="1" as="geometry">
            <mxPoint x="260" y="410" as="sourcePoint" />
            <mxPoint x="555" y="255" as="targetPoint" />
          </mxGeometry>
        </mxCell>
        <mxCell id="_3lTq945jsmqDbsukCAh-23" value="" style="endArrow=none;html=1;rounded=0;entryX=0;entryY=0.5;entryDx=0;entryDy=0;" edge="1" parent="1" target="_3lTq945jsmqDbsukCAh-21">
          <mxGeometry width="50" height="50" relative="1" as="geometry">
            <mxPoint x="260" y="410" as="sourcePoint" />
            <mxPoint x="555" y="375" as="targetPoint" />
          </mxGeometry>
        </mxCell>
        <mxCell id="_3lTq945jsmqDbsukCAh-24" value="&amp;lt;&amp;lt;Includes&amp;gt;&amp;gt;" style="endArrow=block;dashed=1;html=1;rounded=0;endFill=0;startArrow=none;startFill=0;entryX=0.5;entryY=1;entryDx=0;entryDy=0;" edge="1" parent="1" source="_3lTq945jsmqDbsukCAh-20" target="_3lTq945jsmqDbsukCAh-18">
          <mxGeometry width="50" height="50" relative="1" as="geometry">
            <mxPoint x="610" y="215" as="sourcePoint" />
            <mxPoint x="410" y="180" as="targetPoint" />
          </mxGeometry>
        </mxCell>
        <mxCell id="_3lTq945jsmqDbsukCAh-25" value="&amp;lt;&amp;lt;Includes&amp;gt;&amp;gt;" style="endArrow=block;dashed=1;html=1;rounded=0;endFill=0;startArrow=none;startFill=0;entryX=0.5;entryY=1;entryDx=0;entryDy=0;" edge="1" parent="1">
          <mxGeometry width="50" height="50" relative="1" as="geometry">
            <mxPoint x="614.5" y="450" as="sourcePoint" />
            <mxPoint x="614.5" y="400" as="targetPoint" />
          </mxGeometry>
        </mxCell>
        <mxCell id="_3lTq945jsmqDbsukCAh-26" value="&amp;lt;&amp;lt;Includes&amp;gt;&amp;gt;" style="endArrow=none;dashed=1;html=1;rounded=0;endFill=0;startArrow=block;startFill=0;entryX=0.5;entryY=1;entryDx=0;entryDy=0;" edge="1" parent="1" target="_3lTq945jsmqDbsukCAh-5">
          <mxGeometry width="50" height="50" relative="1" as="geometry">
            <mxPoint x="614.5" y="580" as="sourcePoint" />
            <mxPoint x="614.5" y="530" as="targetPoint" />
          </mxGeometry>
        </mxCell>
      </root>
    </mxGraphModel>
  </diagram>
</mxfile>
